<svg xmlns="http://www.w3.org/2000/svg" version="1.1" viewBox="-5.0 -10.0 110.0 135.0">
 <path d="m41.043 92.867v-14.262c-4.7227-0.95312-8.7734-4.4883-10.094-9.4141l-1.4609-5.4492c-0.67969-2.5312-0.54688-5.1016 0.22656-7.4375h-18.156c-0.99219 0-1.8086 0.81641-1.8086 1.8086v34.758c0 0.99219 0.81641 1.8086 1.8086 1.8086h27.676c0.99219-0.003907 1.8086-0.82031 1.8086-1.8125zm34.84-44.422c5.1914 0.85156 6.9648 7.4609 2.8906 10.797zm-24.246-2.9336 7.6055 28.391 15.371 3.5508c3.1172 0.71875 5.8633-2.1211 5.0352-5.2148l-9.5117-35.492c-0.82812-3.0898-4.6289-4.1797-6.9688-1.9961zm3.5391 30.703 3.5781 13.352c0.72266 2.6914-0.89062 5.4805-3.5781 6.1992-2.6914 0.72266-5.4805-0.89062-6.1992-3.582l-3.6016-13.445c0.52344-0.074219 1.0469-0.17969 1.5703-0.31641zm-15.805-26.027 10.176-2.7266 6.9102 25.797-10.176 2.7266c-5.5977 1.5-11.398-1.8516-12.898-7.4453l-1.4609-5.4492c-1.4961-5.5977 1.8555-11.402 7.4492-12.902zm56.195 12.855c0.67969 0.14453 1.1133 0.8125 0.96875 1.4922-0.14453 0.67969-0.8125 1.1133-1.4922 0.97266l-8.8008-1.875c-0.67969-0.14453-1.1133-0.8125-0.97266-1.4922 0.14453-0.67969 0.8125-1.1133 1.4922-0.97266zm-1.5-16.398c0.66016-0.21094 1.3672 0.15234 1.582 0.8125 0.21094 0.66016-0.15234 1.3672-0.8125 1.582l-8.5586 2.7773c-0.66016 0.21094-1.3672-0.15234-1.582-0.8125-0.21094-0.66016 0.15234-1.3672 0.8125-1.582zm-9.5039-13.449c0.46484-0.51562 1.2617-0.55859 1.7773-0.09375 0.51562 0.46484 0.55859 1.2617 0.09375 1.7773l-6.0234 6.6836c-0.46484 0.51562-1.2617 0.55859-1.7773 0.09375-0.51562-0.46484-0.55859-1.2617-0.09375-1.7773zm-44.797-19.648v13.09c0 3.2539 3.1289 4.3672 5.3945 3.457 1.2305-0.49609 2.1953-1.6445 2.1953-3.457v-13.09c0-3.2539-3.1289-4.3672-5.3945-3.457-1.2344 0.49609-2.1953 1.6484-2.1953 3.457zm-10.688-3.3008v6.8906c1.043 1.0898 1.6758 2.5234 1.6758 4.0898 0 1.5898-0.62891 3.0312-1.6758 4.1211v1.0039c0 3.4922 3.3555 4.6992 5.8008 3.7188 1.3281-0.53125 2.3633-1.7695 2.3633-3.7188v-16.105c0-3.4922-3.3594-4.6992-5.8008-3.7188-1.3281 0.53516-2.3633 1.7734-2.3633 3.7188zm-10.688-2.1367v6.9727h5.8203c0.82422 0 1.6133 0.14844 2.3438 0.41406v-7.3867c0-3.4922-3.3594-4.6992-5.8008-3.7188-1.3242 0.53516-2.3633 1.7695-2.3633 3.7188zm-10.684 6.9727h8.1641v-6.9727c0-3.4922-3.3555-4.6992-5.8008-3.7188-1.3281 0.53516-2.3633 1.7695-2.3633 3.7188zm4.75 32.812h25.777l1.7852-0.48828c2.7734-5.0781 6.5117-9.8906 7.2148-15.566-2.7656 1.8242-6.8008 1.3086-8.8008-1.3633-3.3281 4.2305-11.383 2.8906-11.855-3.5234-0.70312 0.24609-1.4648 0.38281-2.2617 0.38281h-4.2422c5.0391 2.3438 8.3906 7.4727 8.3906 13.223 0 0.69531-0.56641 1.2617-1.2617 1.2617s-1.2617-0.56641-1.2617-1.2617c0-6.5391-5.2148-11.973-11.723-12.02-2.4297-0.019531-2.2695-3.7227 0.11328-3.7227h9.9844c2.0195 0 3.9141-1.4492 3.9141-3.5859 0-2.1211-1.9492-3.625-4.0195-3.625l-17.059 0.003906c-2.0391 0-3.7148 1.5664-3.7148 3.6211v9.6016c0 0.99609 0.21875 1.8203 0.71484 2.6758zm-0.16797 5.8867h18.57c0.73828-1.2617 1.6875-2.4062 2.8086-3.3672h-21.379z" fill-rule="evenodd"/>
<text x="0.0" y="117.5" font-size="5.0" font-weight="bold" font-family="Arbeit Regular, Helvetica, Arial-Unicode, Arial, Sans-serif" fill="#000000">Created by Faridah</text><text x="0.0" y="122.5" font-size="5.0" font-weight="bold" font-family="Arbeit Regular, Helvetica, Arial-Unicode, Arial, Sans-serif" fill="#000000">from Noun Project</text></svg>