<?xml version="1.0" encoding="UTF-8" standalone="no"?>
<svg
   version="1.1"
   viewBox="-5.0 -10.0 110.0 135.0"
   id="svg2"
   sodipodi:docname="c4.svg"
   inkscape:version="1.3.2 (091e20e, 2023-11-25)"
   xmlns:inkscape="http://www.inkscape.org/namespaces/inkscape"
   xmlns:sodipodi="http://sodipodi.sourceforge.net/DTD/sodipodi-0.dtd"
   xmlns="http://www.w3.org/2000/svg"
   xmlns:svg="http://www.w3.org/2000/svg">
  <defs
     id="defs2" />
  <sodipodi:namedview
     id="namedview2"
     pagecolor="#ffffff"
     bordercolor="#000000"
     borderopacity="0.25"
     inkscape:showpageshadow="2"
     inkscape:pageopacity="0.0"
     inkscape:pagecheckerboard="0"
     inkscape:deskcolor="#d1d1d1"
     inkscape:zoom="1.7481481"
     inkscape:cx="55.201271"
     inkscape:cy="67.5"
     inkscape:window-width="1224"
     inkscape:window-height="449"
     inkscape:window-x="217"
     inkscape:window-y="25"
     inkscape:window-maximized="0"
     inkscape:current-layer="svg2" />
  <path
     d="m90 44.801c0 8.6016-6.9688 15.559-15.559 15.559-8.6016 0-15.559-6.9688-15.559-15.559zm-68.879-3.5898 4.4492-9.7891 4.4492 9.7891h6.0703l-6.7695-14.922c1.8906-0.21094 3.6992-0.62109 5.5391-1.0508 3.6602-0.83984 7.4805-1.7188 12.379-0.5v47.93h-7.4805c-1.5312 0-2.7695 1.2383-2.7695 2.7695s1.2383 2.7695 2.7695 2.7695h20.488c1.5312 0 2.7695-1.2383 2.7695-2.7695s-1.2383-2.7695-2.7695-2.7695h-7.4688l0.003906-47.918c4.8984-1.2188 8.7188-0.35156 12.379 0.5 1.8398 0.42188 3.6484 0.83984 5.5391 1.0508l-6.7695 14.922h6.0703l4.4492-9.7891 4.4492 9.7891h6.0703l-6.9883-15.391c0.55078-0.14062 1.1211-0.30859 1.6992-0.51172 1.4492-0.48828 2.2188-2.0586 1.7305-3.5-0.48828-1.4492-2.0586-2.2188-3.5-1.7305-4.25 1.4492-7.8008 0.64062-11.5-0.21094-4.0117-0.92188-8.1797-1.8789-13.621-0.78125v-1.8281c0-1.5312-1.2383-2.7695-2.7695-2.7695s-2.7695 1.2383-2.7695 2.7695v1.8281c-5.4297-1.0898-9.6016-0.14062-13.621 0.78125-3.7109 0.85156-7.25 1.6602-11.5 0.21094-1.4492-0.48828-3.0117 0.28125-3.5 1.7305-0.48828 1.4492 0.28125 3.0117 1.7305 3.5 0.57812 0.19922 1.1484 0.37109 1.6992 0.51172l-6.9883 15.391 6.0508-0.003906zm46.18 38.77h-34.602c-1.5312 0-2.7695 1.2383-2.7695 2.7695s1.2383 2.7695 2.7695 2.7695h34.602c1.5312 0 2.7695-1.2383 2.7695-2.7695s-1.2422-2.7695-2.7695-2.7695zm-26.172-35.18h-31.129c0 8.6016 6.9688 15.559 15.559 15.559 8.6016 0 15.57-6.9688 15.57-15.559z"
     fill-rule="evenodd"
     id="path1" />
</svg>
