<?xml version="1.0" encoding="UTF-8" standalone="no"?>
<svg
   version="1.1"
   viewBox="-5.0 -10.0 110.0 135.0"
   id="svg2"
   sodipodi:docname="c5.svg"
   inkscape:version="1.3.2 (091e20e, 2023-11-25)"
   xmlns:inkscape="http://www.inkscape.org/namespaces/inkscape"
   xmlns:sodipodi="http://sodipodi.sourceforge.net/DTD/sodipodi-0.dtd"
   xmlns="http://www.w3.org/2000/svg"
   xmlns:svg="http://www.w3.org/2000/svg">
  <defs
     id="defs2" />
  <sodipodi:namedview
     id="namedview2"
     pagecolor="#ffffff"
     bordercolor="#000000"
     borderopacity="0.25"
     inkscape:showpageshadow="2"
     inkscape:pageopacity="0.0"
     inkscape:pagecheckerboard="0"
     inkscape:deskcolor="#d1d1d1"
     inkscape:zoom="1.7481481"
     inkscape:cx="55.201271"
     inkscape:cy="70.360169"
     inkscape:window-width="1224"
     inkscape:window-height="449"
     inkscape:window-x="217"
     inkscape:window-y="25"
     inkscape:window-maximized="0"
     inkscape:current-layer="svg2" />
  <path
     d="m17.289 72.98c7.25 10.289 19.199 17.02 32.711 17.02s25.461-6.7305 32.711-17.02c0.10937-0.12109 0.21094-0.26172 0.28906-0.41016 4.4102-6.4297 7-14.211 7-22.578 0-8.3711-2.5898-16.148-7-22.578-0.078125-0.14844-0.17969-0.28125-0.28906-0.41016-7.25-10.273-19.199-17.004-32.711-17.004s-25.461 6.7305-32.711 17.02c-0.10937 0.12109-0.21094 0.26172-0.28906 0.41016-4.4102 6.4297-7 14.211-7 22.578 0 8.3711 2.5898 16.148 7 22.578 0.089844 0.13281 0.17969 0.27344 0.28906 0.39453zm6.832 0.82031h12.531c1.1602 3.9883 2.6289 7.5 4.4102 10.219-6.6016-1.7305-12.441-5.3398-16.941-10.219zm37.457-21.391c-0.14844 6.1602-0.87109 11.789-1.9609 16.578h-19.238c-1.0898-4.7891-1.8086-10.41-1.9609-16.578zm-23.156-4.8203c0.14844-6.1602 0.87109-11.789 1.9609-16.578h19.23c1.0898 4.7891 1.8086 10.41 1.9609 16.578zm11.578 37.59c-2.9297 0-6.0391-4.3008-8.3086-11.379h16.621c-2.2734 7.0781-5.3828 11.379-8.3125 11.379zm8.9414-1.1484c1.7812-2.7188 3.25-6.2305 4.4102-10.219h12.531c-4.5039 4.8672-10.344 8.4766-16.941 10.219zm20.648-15.043h-15.051c1.0898-5.1914 1.7188-10.891 1.8594-16.578h18.691c-0.41016 6.0781-2.3789 11.73-5.5 16.578zm0-37.977c3.1211 4.8516 5.0781 10.5 5.4883 16.578h-18.68c-0.14063-5.6797-0.76953-11.379-1.8594-16.578zm-3.7109-4.8125h-12.539c-1.1602-3.9883-2.6289-7.5-4.4102-10.219 6.6094 1.7305 12.449 5.3398 16.949 10.219zm-25.879-11.379c2.9297 0 6.0391 4.3008 8.3086 11.379h-16.617c2.2695-7.0781 5.3789-11.379 8.3086-11.379zm-8.9414 1.1484c-1.7812 2.7188-3.25 6.2305-4.4102 10.219l-12.527 0.003906c4.5-4.8711 10.34-8.4805 16.938-10.223zm-20.648 15.043h15.051c-1.0898 5.1914-1.7188 10.891-1.8594 16.578h-18.691c0.41016-6.0781 2.3789-11.73 5.5-16.578zm13.191 21.398c0.14063 5.6797 0.76953 11.379 1.8594 16.578h-15.051c-3.1211-4.8516-5.0781-10.5-5.4883-16.578z"
     id="path1" />
</svg>
