<svg xmlns="http://www.w3.org/2000/svg" version="1.1" viewBox="-5.0 -10.0 110.0 135.0">
 <path d="m47.57 15.949c-1.3008 0.62109-3.0781 0.64062-4.8711 0.011719-1.1016 1.4609-3.3086 2.4492-5.8594 2.4492-2.5 0-4.6719-0.96094-5.7891-2.3711-1.0898 0.55078-2.4219 0.85938-3.8711 0.85938-3.6406 0-6.6016-2.0391-6.6016-4.5586 0-1.7305 1.4102-3.25 3.4688-4.0195-1.6992-3.7109 3.1914-5.9297 6.3008-5.9297 1.6992 0 3.2617 0.44922 4.4297 1.1797 1.2109-0.96875 3-1.5781 5-1.5781 2.7891 0 5.1797 1.1992 6.1406 2.8906 2.8281-1.4883 8.8789 0.42969 7.8711 5.5508 3.3398 0.011718 5.6289 3.2812 6.4414 6.4492l-11.57-0.003906c-0.32812 0-0.66016 0.039063-0.96875 0.12109-0.11328-0.35938-0.16016-0.71875-0.12109-1.0508zm2.2305 12.332v21.77l10.699 3.5508v-25.32zm21.039 0v28.75l10.699 3.5508v-32.301zm-22.961-7.5195v3.6406c0 0.42969 0.35938 0.78125 0.78906 0.78125h12.961c0.42969 0 0.78906-0.35156 0.78906-0.78125v-3.6406c0-0.42969-0.35156-0.78125-0.78906-0.78125h-12.969c-0.42969 0-0.78125 0.34766-0.78125 0.78125zm21.82 4.4297h12.969c0.42969 0 0.78125-0.35156 0.78125-0.78125v-3.6406c0-0.42969-0.35156-0.78125-0.78125-0.78125h-12.969c-0.42969 0-0.78125 0.35156-0.78125 0.78125v3.6406c0.003906 0.42969 0.35156 0.78125 0.78125 0.78125zm-22.688 47.777h40.41v-6.4805c0-0.42188-0.26953-0.78906-0.66016-0.92188l-39.75-13.168zm45.027 4.0703v20c0 0.53125-0.42969 0.96875-0.96875 0.96875l-44.18 0.003907c0.070313-0.30859 0.12109-0.64062 0.12109-0.96875v-20.973h44.051c0.53906 0 0.97656 0.42969 0.97656 0.96875zm-33.66 7.7617c0-0.46094-0.37109-0.82812-0.82812-0.82812h-4.4609c-0.46094 0-0.82812 0.37109-0.82812 0.82812v4.4609c0 0.46094 0.37109 0.82812 0.82812 0.82812h4.4609c0.46094 0 0.82812-0.37109 0.82812-0.82812zm14.141 0c0-0.46094-0.37109-0.82812-0.82812-0.82812h-4.4609c-0.46094 0-0.82812 0.37109-0.82812 0.82812v4.4609c0 0.46094 0.37891 0.82812 0.82812 0.82812h4.4609c0.46094 0 0.82812-0.37109 0.82812-0.82812zm14.152 0c0-0.46094-0.37891-0.82812-0.82812-0.82812h-4.4609c-0.46094 0-0.82812 0.37109-0.82812 0.82812v4.4609c0 0.46094 0.37109 0.82812 0.82812 0.82812h4.4609c0.46094 0 0.82812-0.37109 0.82812-0.82812zm-42.762-46.582v58.809c0 0.53125-0.42969 0.96875-0.96875 0.96875l-11.473 0.003906v-14.91c0-0.53906-0.42969-0.96875-0.96875-0.96875h-9.1406c-0.53125 0-0.96875 0.42969-0.96875 0.96875v14.91h-11.461c-0.53125 0-0.96875-0.42969-0.96875-0.96875v-58.812c0-0.53906 0.42969-0.96875 0.96875-0.96875h34.02c0.53125 0 0.96094 0.44141 0.96094 0.96875zm-21.41 30.16c0-0.53125-0.42969-0.94922-0.96094-0.94922h-5.1602c-0.53125 0-0.96094 0.42969-0.96094 0.94922v5.1602c0 0.53125 0.42969 0.94922 0.96094 0.94922h5.1602c0.53125 0 0.96094-0.42969 0.96094-0.94922zm0-12.188c0-0.53125-0.42969-0.94922-0.96094-0.94922h-5.1602c-0.53125 0-0.96094 0.42969-0.96094 0.94922v5.1602c0 0.53125 0.42969 0.94922 0.96094 0.94922h5.1602c0.53125 0 0.96094-0.42969 0.96094-0.94922zm0-12.191c0-0.53125-0.42969-0.94922-0.96094-0.94922h-5.1602c-0.53125 0-0.96094 0.42969-0.96094 0.94922v5.1602c0 0.53125 0.42969 0.96094 0.96094 0.96094h5.1602c0.53125 0 0.96094-0.42969 0.96094-0.96094zm13.961 24.379c0-0.53125-0.42969-0.94922-0.96094-0.94922h-5.1602c-0.53125 0-0.96094 0.42969-0.96094 0.94922v5.1602c0 0.53125 0.42969 0.94922 0.96094 0.94922h5.1602c0.53125 0 0.96094-0.42969 0.96094-0.94922zm0-12.188c0-0.53125-0.42969-0.94922-0.96094-0.94922h-5.1602c-0.53125 0-0.96094 0.42969-0.96094 0.94922v5.1602c0 0.53125 0.42969 0.94922 0.96094 0.94922h5.1602c0.53125 0 0.96094-0.42969 0.96094-0.94922zm0-12.191c0-0.53125-0.42969-0.94922-0.96094-0.94922h-5.1602c-0.53125 0-0.96094 0.42969-0.96094 0.94922v5.1602c0 0.53125 0.42969 0.96094 0.96094 0.96094h5.1602c0.53125 0 0.96094-0.42969 0.96094-0.96094z" fill-rule="evenodd"/>
<text x="0.0" y="117.5" font-size="5.0" font-weight="bold" font-family="Arbeit Regular, Helvetica, Arial-Unicode, Arial, Sans-serif" fill="#000000">Created by nangicon</text><text x="0.0" y="122.5" font-size="5.0" font-weight="bold" font-family="Arbeit Regular, Helvetica, Arial-Unicode, Arial, Sans-serif" fill="#000000">from Noun Project</text></svg>