<svg xmlns="http://www.w3.org/2000/svg" data-name="Layer 1" viewBox="0 0 100 125" x="0px" y="0px"><title>a</title><path d="M20.429,49.993V20.386A10.28,10.28,0,0,0,10.184,10.142c-2.491,0-3.756.967-4.384,2.521-.753,1.869-.8,4.654-.8,7.723V49.993ZM39.452,89.858H84.918c2.531,0,4.883-1.609,6.681-3.9A16.534,16.534,0,0,0,95,77.646H44.958c-.359,4.245-2.242,9.158-5.506,12.212ZM63.378,54.851a1.452,1.452,0,1,1,0,2.9h-32.6a1.452,1.452,0,1,1,0-2.9Zm-.159,11.564a1.453,1.453,0,1,1,0,2.9H30.777a1.453,1.453,0,1,1,0-2.9ZM36.991,77.985a1.452,1.452,0,0,1,0,2.9H30.777a1.452,1.452,0,1,1,0-2.9Zm1.235-53.2c.768,7.723,1.221,12.317,9.059,17.807a2.6,2.6,0,0,0,3,.04c7.389-4.883,7.7-7.4,9.128-19.058a8.789,8.789,0,0,0,.14-1.535.621.621,0,0,0-.623-.413c-6.278.329-7.409-.4-9.841-1.8-.314-.184-.528-.05-.772.09-2.3,1.335-3.518,2.043-9.706,1.714a.6.6,0,0,0-.638.677c.075.718.165,1.615.249,2.482Zm7.4,20.179C35.75,38.044,36.144,32.374,35.092,22.6a3.5,3.5,0,0,1,3.672-3.876c5.441.289,6.313-.289,8.266-1.42a3.44,3.44,0,0,1,3.513,0c1.953,1.131,2.82,1.709,8.246,1.42a3.508,3.508,0,0,1,3.667,3.931L62.3,23.924c-1.565,12.75-1.9,15.5-10.409,21.121a5.5,5.5,0,0,1-6.258-.085ZM43.767,31.452A1.269,1.269,0,0,1,45.7,29.8l2.671,3.139L54.768,27A1.268,1.268,0,1,1,56.5,28.857L49.123,35.7A1.262,1.262,0,0,1,47.3,35.6ZM31.988,89.858h.792c2.681-.149,4.863-1.863,6.438-4.2a17.715,17.715,0,0,0,2.9-9.462,1.456,1.456,0,0,1,1.454-1.455H73.358V19.519a9.4,9.4,0,0,0-9.377-9.377H18.406a13.142,13.142,0,0,1,4.927,10.244V79.758c0,5.391,2.97,10.1,8.655,10.1Z"/><text x="0" y="115" fill="#000000" font-size="5px" font-weight="bold" font-family="'Helvetica Neue', Helvetica, Arial-Unicode, Arial, Sans-serif">Created by HRF07</text><text x="0" y="120" fill="#000000" font-size="5px" font-weight="bold" font-family="'Helvetica Neue', Helvetica, Arial-Unicode, Arial, Sans-serif">from the Noun Project</text></svg>