<svg xmlns="http://www.w3.org/2000/svg" version="1.1" viewBox="-5.0 -10.0 110.0 135.0">
 <path d="m6.0547 57.727h21.68c0.57422 5.9922 1.5664 11.602 2.8945 16.625-5.4453 1.6875-10.594 4.0703-15.367 7.0742-5.4297-5.9102-9.3711-13.215-11.227-21.316-0.29297-1.2773 0.73047-2.4609 2.0195-2.3828zm16.637-38.223c-1.2969-0.35156-2.5469 0.78125-2.2812 2.125 1.4102 7.1406 3.793 12.152 7.7344 14.551 3.2031 1.9531 7.2539 2.1172 12.418 0.23047 0.90234 0.5625 1.7773 1.2031 2.6172 1.9102 1.6836 1.4258 3.1992 3.1211 4.4766 5.0117-0.34375 4.9023-0.10156 9.8867 0.21094 14.387h-16.215c0.55859 5.6289 1.4922 10.883 2.7344 15.582 10.219-2.5078 21.02-2.5078 31.238 0 1.2422-4.6992 2.1758-9.9531 2.7344-15.582h-16.812c-0.082031-1.1602-0.15625-2.3555-0.22266-3.5742 2.2031-1.7109 4.7227-3.0391 7.3516-3.8047 3.4961 2.125 6.625 2.6641 9.5039 1.8164 3.9648-1.1641 7.1836-4.9375 10.051-10.773 0.55469-1.1328-0.25781-2.4492-1.4805-2.5117-5.082-0.27344-8.4844-1.0352-10.93-1.5781-2.8594-0.63672-4.6055-1.0273-6.4336-0.19141-1.0625 0.48438-1.9648 1.3359-2.8945 2.7266-0.78125 1.1719-1.6055 2.7461-2.6211 4.8828 2.4688-1.1992 5.1328-1.9805 7.7852-2.1992 0.96484-0.078125 1.8086 0.63672 1.8906 1.6016 0.078125 0.96484-0.64062 1.8086-1.6016 1.8906-3.7891 0.31641-7.5156 1.6953-10.777 3.7656-0.10547-6.9844 0.51562-15.129 4.3945-20.988 9.3516 1.8984 15.578 0.61719 19.426-3.4219 3.8711-4.0586 5.0898-10.746 4.4922-19.672-0.085938-1.293-1.4727-2.1523-2.7344-1.4766-6.3594 3.2266-11.043 4.6914-14.414 5.75-2.9883 0.9375-5.0391 1.5781-6.5703 2.8867-2.2539 1.9219-2.6172 4.7461-2.6211 7.9492 2.2461-2.1875 4.8984-4.0039 7.7305-5.1641 0.85156-0.34766 1.8203 0.0625 2.1719 0.91406 0.34766 0.85156-0.058594 1.8203-0.91016 2.1719-1.9258 0.79297-3.7734 1.9492-5.4688 3.3867-1.5352 1.3008-2.0977 1.9062-3.3164 3.4258 0.019532 0.17969-3.5508 3.7734-5.0859 12.637-0.85156-0.95312-1.7617-1.8398-2.7188-2.6484-0.78906-0.66797-1.6094-1.2852-2.457-1.8438-1.6055-1.4023-5.7695-2.7656-7.4688-3.4648-0.93359-0.38281-1.3828-1.4531-0.99609-2.3906 0.38281-0.9375 1.4531-1.3828 2.3906-0.99609 1.2734 0.52734 2.9531 1.3477 4.5273 2.2578 1.7031 0.98438 2.7773 1.7422 4.0469 2.8984-0.55469-2.9688-1.0547-5.0469-1.6758-6.5391-1.75-4.2109-4.6445-4.3086-8.9609-4.4883-2.8047-0.11719-6.6992-0.28125-12.262-1.4492zm9.0273 58.594c-4.8086 1.4961-9.3828 3.5703-13.625 6.1523 6.582 6.0508 14.84 10.211 23.926 11.762-4.8711-4.1094-8.1953-11.285-10.301-17.914zm32.805-1.0391c-0.96094 3-2.0586 5.7188-3.2656 8.0977-6.8633 13.531-15.652 13.531-22.52 0-1.207-2.3789-2.3047-5.0977-3.2656-8.0977 9.5-2.3008 19.551-2.3008 29.051 0zm7.7422-19.336h21.797c1.2539 0 2.1797 1.168 1.9023 2.3828-1.8555 8.1016-5.7969 15.402-11.227 21.316-4.7695-3.0039-9.9258-5.3867-15.367-7.0742 1.3281-5.0234 2.3203-10.629 2.8945-16.625zm9.6406 26.527c-4.2422-2.5781-8.8164-4.6562-13.625-6.1523-2.1055 6.6289-5.4297 13.805-10.301 17.914 9.0898-1.5508 17.344-5.7109 23.926-11.762z" fill-rule="evenodd"/>
<text x="0.0" y="117.5" font-size="5.0" font-weight="bold" font-family="Arbeit Regular, Helvetica, Arial-Unicode, Arial, Sans-serif" fill="#000000">Created by New River</text><text x="0.0" y="122.5" font-size="5.0" font-weight="bold" font-family="Arbeit Regular, Helvetica, Arial-Unicode, Arial, Sans-serif" fill="#000000">from Noun Project</text></svg>